<svg xmlns="http://www.w3.org/2000/svg" version="1.1" xmlns:xlink="http://www.w3.org/1999/xlink" xmlns:svgjs="http://svgjs.dev/svgjs" width="1500" height="1500" viewBox="0 0 1500 1500"><rect width="1500" height="1500" fill="#000000"></rect><g transform="matrix(0.6666666666666666,0,0,0.6666666666666666,249.39478571889913,519.3828210234584)"><svg viewBox="0 0 396 183" data-background-color="#00784a" preserveAspectRatio="xMidYMid meet" height="693" width="1500" xmlns="http://www.w3.org/2000/svg" xmlns:xlink="http://www.w3.org/1999/xlink"><g id="tight-bounds" transform="matrix(1,0,0,1,0.24024314418250015,-0.15163689890235332)"><svg viewBox="0 0 395.52 183.30320808316372" height="183.30320808316372" width="395.52"><g><svg viewBox="0 0 395.52 183.30320808316372" height="183.30320808316372" width="395.52"><g transform="matrix(1,0,0,1,0,120.2974297587571)"><svg viewBox="0 0 395.52 63.00577832440662" height="63.00577832440662" width="395.52"><g id="textblocktransform"><svg viewBox="0 0 395.52 63.00577832440662" height="63.00577832440662" width="395.52" id="textblock"><g><svg viewBox="0 0 395.52 63.00577832440662" height="63.00577832440662" width="395.52"><g transform="matrix(1,0,0,1,0,0)"><svg width="395.52" viewBox="-1.121559999999999 -35.26597 300.9374899999999 47.93892" height="63.00577832440662" data-palette-color="#fffafe"><path d="M20.261 10.364l-16.509 2.309-0.421-3.011 3.797-1.218-3.838-27.442-3.986-0.129-0.426-3.041 3.893-0.544 11.131-1.557c3.638-0.509 6.59-0.121 8.857 1.164 2.273 1.284 3.629 3.498 4.069 6.64v0c0.217 1.552-0.081 3.004-0.895 4.356-0.806 1.358-1.973 2.447-3.502 3.267v0c1.439 0.088 2.72 0.481 3.841 1.179 1.127 0.697 2.049 1.608 2.765 2.734 0.717 1.132 1.176 2.414 1.376 3.846v0c0.446 3.189-0.25 5.77-2.087 7.744-1.838 1.974-4.526 3.208-8.065 3.703zM10.072-4.872l1.771 12.657 7.903-1.105c2.152-0.301 3.748-1.066 4.788-2.296 1.041-1.223 1.425-2.808 1.152-4.755v0c-0.192-1.373-0.577-2.514-1.155-3.423-0.572-0.916-1.347-1.572-2.325-1.967-0.972-0.403-2.144-0.508-3.518-0.316v0zM8.004-19.658l1.553 11.102 7.636-1.068c1.69-0.236 2.988-0.919 3.893-2.049 0.913-1.124 1.251-2.531 1.015-4.221v0c-0.264-1.888-1.052-3.215-2.364-3.981-1.312-0.766-3.084-0.992-5.315-0.68v0zM47.219 6.998l-12.547 1.444-0.348-3.02 3.827-1.125-3.454-30.022-3.982-0.226-0.351-3.05 8.633-0.994 3.883 33.748 3.992 0.225zM58.771 6.426v0c-2.708 0.253-4.831-0.219-6.369-1.415-1.53-1.19-2.408-2.986-2.632-5.388v0c-0.154-1.653 0.163-3.135 0.951-4.448 0.795-1.313 2.017-2.388 3.666-3.224 1.655-0.844 3.678-1.378 6.068-1.601v0l4.64-0.433-0.238-2.549c-0.147-1.573-0.738-2.747-1.775-3.521-1.03-0.781-2.412-1.091-4.144-0.928v0c-1.095 0.102-2.029 0.323-2.801 0.663-0.778 0.34-1.474 0.774-2.088 1.299v0l-0.169 3.682-3.654 0.341-0.556-5.964c1.08-1.058 2.377-1.906 3.89-2.543 1.508-0.63 3.208-1.033 5.1-1.209v0c3.16-0.295 5.709 0.227 7.648 1.566 1.933 1.34 3.03 3.413 3.293 6.221v0l1.169 12.526c0.032 0.339 0.066 0.667 0.102 0.985 0.044 0.324 0.094 0.644 0.15 0.96v0l2.554 0.033 0.282 3.026-6.81 0.636c-0.205-0.691-0.377-1.314-0.516-1.87-0.132-0.55-0.237-1.106-0.317-1.668v0c-0.807 1.254-1.861 2.336-3.161 3.248-1.295 0.904-2.722 1.429-4.283 1.575zM59.098 2.388v0c1.573-0.147 2.975-0.656 4.206-1.528 1.23-0.878 2.075-1.871 2.534-2.978v0l-0.44-4.719-4.81 0.448c-2.184 0.204-3.771 0.878-4.762 2.022-0.991 1.144-1.427 2.356-1.308 3.637v0c0.107 1.142 0.54 1.978 1.299 2.51 0.76 0.538 1.854 0.741 3.281 0.608zM89.016 4.019v0c-2.361 0.156-4.454-0.26-6.276-1.248-1.829-0.981-3.291-2.421-4.385-4.32-1.095-1.898-1.727-4.132-1.897-6.699v0l-0.068-1.018c-0.164-2.475 0.158-4.724 0.967-6.748 0.802-2.017 2.039-3.656 3.713-4.917 1.674-1.253 3.725-1.96 6.153-2.121v0c2.109-0.14 3.977 0.081 5.606 0.661 1.629 0.587 3.022 1.45 4.18 2.589v0l0.535 6.259-3.712 0.246-1.13-4.505c-0.582-0.523-1.294-0.926-2.135-1.212-0.841-0.285-1.816-0.391-2.927-0.317v0c-1.41 0.093-2.623 0.595-3.639 1.504-1.016 0.902-1.773 2.075-2.272 3.517-0.506 1.437-0.702 3.013-0.589 4.73v0l0.067 1.017c0.126 1.896 0.514 3.524 1.166 4.884 0.645 1.36 1.511 2.389 2.599 3.085 1.088 0.696 2.348 0.997 3.778 0.902v0c1.603-0.106 2.908-0.637 3.914-1.592 0.999-0.955 1.571-2.212 1.714-3.771v0l4.261-0.283 0.059 0.137c0.019 1.502-0.33 2.932-1.049 4.288-0.719 1.357-1.793 2.481-3.224 3.371-1.437 0.897-3.24 1.417-5.409 1.561zM114.923 2.254l-12.622 0.463-0.111-3.038 3.902-0.823-1.108-30.2-3.952-0.535-0.113-3.068 8.684-0.319 1.246 33.947 3.962 0.535zM130.882 1.668l-11.802 0.434-0.112-3.038 2.637-0.417-0.073-0.088-7.914-9.486 2.32-3.878 11.044 12.994 3.788 0.442zM124.633-20.557l-14.255 15.413-1.906-3.683 10.938-11.709 0.114-0.154-2.809-0.207-0.113-3.068 11.243-0.413 0.112 3.068zM143.59 2.107v0c-1.947 0.014-3.716-0.361-5.308-1.123-1.592-0.762-2.873-1.923-3.844-3.483-0.971-1.553-1.511-3.506-1.621-5.859v0l0.049-0.141 4.56-0.031c0.083 2.366 0.639 4.102 1.666 5.208 1.034 1.1 2.501 1.643 4.401 1.63v0c1.34-0.009 2.435-0.3 3.284-0.873 0.849-0.579 1.474-1.374 1.874-2.383 0.406-1.01 0.605-2.168 0.596-3.474v0l-0.149-21.45-4.694-0.597-0.022-3.12 13.39-0.093 0.021 3.07-3.935 0.707 0.149 21.45c0.015 2.093-0.373 3.933-1.162 5.518-0.782 1.585-1.95 2.817-3.504 3.694-1.547 0.884-3.464 1.334-5.751 1.35zM169.542 2.251v0c-2.719-0.057-4.775-0.766-6.167-2.129-1.385-1.356-2.053-3.24-2.003-5.653v0c0.035-1.66 0.518-3.097 1.451-4.311 0.939-1.214 2.275-2.143 4.009-2.787 1.741-0.651 3.811-0.951 6.21-0.901v0l4.659 0.097 0.053-2.559c0.033-1.58-0.421-2.813-1.363-3.699-0.935-0.893-2.272-1.358-4.012-1.394v0c-1.1-0.023-2.052 0.091-2.858 0.34-0.812 0.25-1.553 0.601-2.222 1.054v0l-0.586 3.639-3.669-0.077 0.125-5.988c1.193-0.929 2.578-1.623 4.154-2.084 1.57-0.454 3.304-0.661 5.204-0.622v0c3.173 0.066 5.646 0.875 7.421 2.425 1.768 1.551 2.623 3.735 2.564 6.555v0l-0.262 12.577c-0.007 0.34-0.011 0.67-0.011 0.99 0.007 0.327 0.02 0.651 0.04 0.972v0l2.534 0.322-0.064 3.04-6.838-0.143c-0.125-0.709-0.225-1.348-0.3-1.917-0.068-0.562-0.11-1.126-0.125-1.692v0c-0.944 1.154-2.114 2.11-3.511 2.867-1.389 0.751-2.867 1.11-4.433 1.078zM170.325-1.724v0c1.58 0.033 3.031-0.314 4.353-1.039 1.322-0.733 2.274-1.623 2.856-2.671v0l0.099-4.739-4.829-0.101c-2.193-0.046-3.847 0.443-4.962 1.467-1.115 1.024-1.686 2.179-1.713 3.465v0c-0.024 1.146 0.311 2.027 1.006 2.641 0.694 0.621 1.757 0.947 3.19 0.977zM199.864 3.297v0c-2.364-0.113-4.395-0.764-6.093-1.953-1.705-1.183-2.994-2.779-3.866-4.79-0.872-2.011-1.246-4.301-1.123-6.872v0l0.048-1.018c0.118-2.477 0.694-4.676 1.727-6.595 1.026-1.913 2.442-3.401 4.248-4.463 1.806-1.055 3.924-1.524 6.355-1.408v0c2.111 0.101 3.942 0.532 5.494 1.294 1.552 0.768 2.838 1.784 3.859 3.048v0l-0.18 6.278-3.716-0.177-0.611-4.605c-0.519-0.585-1.18-1.068-1.983-1.446-0.803-0.379-1.76-0.595-2.872-0.648v0c-1.412-0.067-2.674 0.293-3.786 1.08-1.112 0.781-1.998 1.86-2.658 3.237-0.666 1.37-1.04 2.914-1.122 4.632v0l-0.049 1.019c-0.091 1.898 0.11 3.559 0.603 4.984 0.486 1.425 1.23 2.545 2.232 3.361 1.002 0.815 2.219 1.257 3.651 1.325v0c1.605 0.077 2.961-0.302 4.069-1.137 1.101-0.835 1.812-2.019 2.132-3.552v0l4.265 0.204 0.043 0.142c-0.152 1.494-0.661 2.875-1.529 4.142-0.868 1.267-2.064 2.261-3.587 2.982-1.53 0.728-3.38 1.04-5.551 0.936zM225.804 4.489l-12.593-0.975 0.235-3.031 3.97-0.375 2.332-30.13-3.866-0.981 0.237-3.061 8.664 0.671-2.621 33.869 3.876 0.982zM241.726 5.721l-11.775-0.912 0.235-3.03 2.666-0.115-0.062-0.095-6.784-10.324 2.745-3.589 9.495 14.165 3.714 0.869zM238.043-17.071l-15.913 13.693-1.476-3.876 12.198-10.39 0.131-0.14-2.768-0.525 0.237-3.061 11.217 0.868-0.237 3.061zM250.631 6.607l-4.738-0.459 0.471-4.857 4.738 0.459zM268.303 8.631l-12.557-1.454 0.35-3.02 3.992-0.222 2.149-18.556-3.836-1.119 0.353-3.049 8.135 0.942 0.025 3.355-0.004 0.463c0.888-1.239 1.916-2.174 3.083-2.804 1.166-0.623 2.445-0.854 3.836-0.694v0c0.497 0.058 1.002 0.16 1.514 0.307 0.507 0.146 0.868 0.272 1.084 0.377v0l-1.134 4.318-3.266-0.57c-1.236-0.224-2.315-0.06-3.238 0.491-0.923 0.551-1.679 1.342-2.268 2.375v0l-1.704 14.712 3.835 1.128zM287.163 11.659v0c-2.344-0.325-4.309-1.156-5.894-2.494-1.592-1.331-2.732-3.038-3.419-5.118-0.687-2.081-0.854-4.396-0.5-6.945v0l0.14-1.01c0.341-2.456 1.112-4.594 2.314-6.413 1.194-1.813 2.738-3.167 4.632-4.062 1.893-0.888 4.045-1.165 6.455-0.831v0c2.093 0.29 3.879 0.885 5.356 1.783 1.476 0.905 2.666 2.032 3.569 3.383v0l-0.744 6.237-3.685-0.511-0.194-4.641c-0.465-0.63-1.08-1.169-1.845-1.619-0.765-0.449-1.7-0.751-2.802-0.904v0c-1.4-0.194-2.689 0.051-3.868 0.736-1.178 0.678-2.157 1.673-2.938 2.984-0.787 1.304-1.298 2.808-1.535 4.512v0l-0.14 1.011c-0.261 1.882-0.211 3.555 0.152 5.018 0.356 1.463 0.996 2.645 1.92 3.548 0.925 0.902 2.097 1.452 3.517 1.649v0c1.591 0.221 2.976-0.035 4.155-0.767 1.172-0.733 1.986-1.848 2.443-3.346v0l4.229 0.587 0.031 0.146c-0.285 1.475-0.917 2.804-1.896 3.987-0.979 1.183-2.259 2.066-3.841 2.647-1.589 0.587-3.46 0.731-5.612 0.433z" opacity="1" transform="matrix(1,0,0,1,0,0)" fill="#ffffff" class="wordmark-text-0" data-fill-palette-color="primary" id="text-0"></path></svg></g></svg></g></svg></g></svg></g><g transform="matrix(1,0,0,1,148.36322692187628,0)"><svg viewBox="0 0 98.7935461562474 101.94334932888991" height="101.94334932888991" width="98.7935461562474"><g><svg xmlns="http://www.w3.org/2000/svg" xmlns:xlink="http://www.w3.org/1999/xlink" version="1.1" x="0" y="0" viewBox="2.2 0.8000000000000003 95.16585727671556 98.19999999999999" style="enable-background:new 0 0 100 100;" xml:space="preserve" height="101.94334932888991" width="98.7935461562474" class="icon-icon-0" data-fill-palette-color="accent" id="icon-0"><path d="M46.5 45.1c0-0.3 0-0.5 0-0.8 0-4.3-3.5-7.8-7.8-7.8-4.3 0-7.8 3.5-7.8 7.8 0 0.3 0 0.5 0 0.7-3.6 0.7-6.2 3.9-6.2 7.7 0 4.3 3.5 7.8 7.8 7.8 0.7 0 1.4-0.1 2-0.3l-1.2 5.1h10.9l-1.3-5c0.6 0.1 1.2 0.2 1.8 0.2 4.3 0 7.8-3.5 7.8-7.8C52.6 49 50 45.9 46.5 45.1z" fill="#ffffff" data-fill-palette-color="accent"></path><path d="M15.8 86c0-0.1 0-0.2 0-0.2 0-1.3-1.1-2.4-2.4-2.4-1.3 0-2.4 1.1-2.4 2.4 0 0.1 0 0.2 0 0.2C9.8 86.2 9 87.2 9 88.4c0 1.3 1.1 2.4 2.4 2.4 0.2 0 0.4 0 0.6-0.1l-0.4 1.6h3.4l-0.4-1.6c0.2 0 0.4 0.1 0.6 0.1 1.3 0 2.4-1.1 2.4-2.4C17.7 87.2 16.9 86.2 15.8 86z" fill="#ffffff" data-fill-palette-color="accent"></path><path d="M62.2 9.5c0-0.1 0-0.2 0-0.2 0-1.3-1.1-2.4-2.4-2.4-1.3 0-2.4 1.1-2.4 2.4 0 0.1 0 0.2 0 0.2-1.1 0.2-1.9 1.2-1.9 2.4 0 1.3 1.1 2.4 2.4 2.4 0.2 0 0.4 0 0.6-0.1L58 15.8h3.4l-0.4-1.6c0.2 0 0.4 0.1 0.6 0.1 1.3 0 2.4-1.1 2.4-2.4C64.1 10.7 63.2 9.7 62.2 9.5z" fill="#ffffff" data-fill-palette-color="accent"></path><path d="M88.1 16.2c0-0.1 0-0.1 0-0.2 0.2-1.3-0.7-2.4-2-2.6-1.3-0.2-2.5 0.7-2.7 1.9 0 0.1 0 0.1 0 0.2-1.1 0-2 0.8-2.2 1.9-0.2 1.3 0.7 2.4 2 2.6 0.2 0 0.4 0 0.6 0l-0.6 1.4 3.2 0.5-0.1-1.5c0.2 0.1 0.3 0.1 0.5 0.1 1.3 0.2 2.5-0.7 2.7-1.9C89.7 17.6 89.1 16.6 88.1 16.2z" fill="#ffffff" data-fill-palette-color="accent"></path><path d="M91.9 7.6L71.2 4.4c-1.2-2.1-3.4-3.6-6-3.6H9c-3.8 0-6.8 3.1-6.8 6.8v84.6c0 3.8 3.1 6.8 6.8 6.8h56.2c1.6 0 3.1-0.6 4.3-1.5l8.2 1.3c3.5 0.6 6.9-1.8 7.4-5.3l12.2-78.6C97.8 11.5 95.4 8.2 91.9 7.6zM65.2 95.9H9c-2 0-3.7-1.6-3.7-3.7V7.7C5.4 5.6 7 4 9 4h56.2c2 0 3.7 1.6 3.7 3.7v84.6C68.9 94.3 67.2 95.9 65.2 95.9zM94.3 14.5L82.1 93.1c-0.3 1.9-2.1 3.2-4 2.9l-6.6-1c0.3-0.8 0.5-1.7 0.5-2.6V7.7c0 0 0-0.1 0-0.1l19.4 3C93.3 10.8 94.6 12.6 94.3 14.5z" fill="#ffffff" data-fill-palette-color="accent"></path></svg></g></svg></g><g></g></svg></g><defs></defs></svg><rect width="395.52" height="183.30320808316372" fill="none" stroke="none" visibility="hidden"></rect></g></svg></g></svg>